<svg xmlns="http://www.w3.org/2000/svg" viewBox="0 0 32 32" fill="none" id="Trumpet-Flat--Streamline-Fluent-Emoji.svg">
    <desc>Trumpet Flat Streamline Emoji: https://streamlinehq.com</desc>
    <path
        d="m14.233 12.5746 0.96 -0.86c0.19 -0.18 0.5 -0.16 0.68 0.03l8.87 9.8c0.42 0.46 0.38 1.17 -0.08 1.59 -0.46 0.42 -1.17 0.38 -1.59 -0.08l-8.87 -9.8c-0.18 -0.2 -0.17 -0.5 0.03 -0.68Zm-2.1401 1.94 -0.96 0.86c-0.2 0.18 -0.21 0.48 -0.03 0.68l1.2939 1.4296c-0.4203 -0.0778 -0.8725 0.0342 -1.2139 0.3403l-0.5965 0.5393 -0.91351 -1.0092c-0.18 -0.2 -0.48 -0.2101 -0.68 -0.0301l-0.95999 0.8601c-0.20001 0.18 -0.21001 0.48 -0.03001 0.68l0.91331 1.009 -5.23328 4.7309c-0.58 0.52 -0.62 1.42 -0.1 2 0.52 0.58 1.42 0.62 2 0.1l5.23368 -4.7312 6.0563 6.6913c0.42 0.4599 1.13 0.4999 1.59 0.0799 0.46 -0.4199 0.5 -1.13 0.08 -1.59l-6.0561 -6.6911 0.5961 -0.5389c0.3429 -0.3074 0.497 -0.7475 0.4584 -1.1758l6.4316 7.1059c0.42 0.46 1.13 0.5 1.59 0.08 0.46 -0.42 0.5 -1.13 0.08 -1.59l-8.87 -9.8c-0.18 -0.19 -0.48 -0.2 -0.68 -0.03Z"
        fill="#e19747" stroke-width="1" />
    <path
        d="m22.0144 2.86454 0.09 1.88c0.04 0.83 -0.4 2.2 -0.77 3.17 -0.26 0.71 -0.69 1.34 -1.25 1.85l-4.05 3.66996 -3.69 3.34 -2.65001 2.4c-2.4 2.17 -2.59 5.89 -0.41 8.29 2.18001 2.4 5.89001 2.59 8.29001 0.41l6.34 -5.74c2.4 -2.17 2.59 -5.89 0.41 -8.29 -0.75 -0.82 -1.67 -1.39 -2.67 -1.68l0.34 -0.3c0.56 -0.5 1.23 -0.87 1.95 -1.06 0.99 -0.26 2.38 -0.56 3.2 -0.44l1.91 0.28c0.76 0.11 1.25 -0.78996 0.73 -1.36996l-6.34 -7.01c-0.52 -0.56 -1.47 -0.17 -1.43 0.6Zm0.21 12.88996c1.12 1.24 1.03 3.17 -0.21 4.29l-6.34 5.74c-1.24 1.12 -3.17 1.03 -4.29 -0.21s-1.03 -3.17 0.21 -4.29l2.63 -2.38 3.71 -3.36c1.24 -1.13 3.17 -1.03 4.29 0.21Z"
        fill="#ffb02e" stroke-width="1" />
    <path
        d="m14.7529 10.6945 -1.49 1.35c-0.3 0.27 -0.32 0.74 -0.05 1.04 0.27 0.3 0.74 0.32 1.04 0.05l1.49 -1.35c0.3 -0.27 0.32 -0.74 0.05 -1.04 -0.27 -0.3 -0.73 -0.33 -1.04 -0.05Zm-4.58 4.15 1.49 -1.35c0.3 -0.27 0.76 -0.25 1.04 0.05 0.27 0.3 0.25 0.77 -0.05 1.04l-1.49 1.35c-0.3 0.27 -0.77 0.25 -1.04 -0.05 -0.26999 -0.3 -0.24999 -0.77 0.05 -1.04Zm-3.09997 2.8 1.49 -1.35c0.3 -0.27 0.76 -0.25 1.04 0.05 0.27 0.3 0.25 0.77 -0.05 1.04l-1.49 1.35c-0.3 0.27 -0.77 0.25 -1.04 -0.05s-0.25 -0.77 0.05 -1.04Zm-4.76001 8.3201c-0.45 -0.49 -0.41 -1.26 0.09 -1.71 0.5 -0.45 1.26 -0.41 1.71 0.09l1.78 1.97c0.45 0.49 0.41 1.26 -0.09 1.71 -0.49 0.45 -1.26 0.41 -1.71 -0.09l-1.78 -1.97Z"
        fill="#d3d3d3" stroke-width="1" />
    <path d="m22.2229 15.7546 2.1 -1.9c-0.75 -0.82 -1.67 -1.39 -2.67 -1.68l-3.72 3.37c1.24 -1.13 3.17 -1.03 4.29 0.21Z"
        fill="#e19747" stroke-width="1" />
</svg>